<svg xmlns="http://www.w3.org/2000/svg" version="1.1" xmlns:xlink="http://www.w3.org/1999/xlink" xmlns:svgjs="http://svgjs.com/svgjs" width="1440" height="560" preserveAspectRatio="none" viewBox="0 0 1440 560"><g mask="url(&quot;#SvgjsMask1007&quot;)" fill="none"><path d="M1464 560L0 560 L0 321.46Q68.93 270.39, 120 339.32Q154.94 254.26, 240 289.2Q294.44 271.63, 312 326.07Q359.71 301.78, 384 349.49Q451.13 296.62, 504 363.75Q570.58 310.33, 624 376.91Q637.29 318.2, 696 331.49Q736.97 252.46, 816 293.42Q861.3 266.72, 888 312.02Q942.67 294.69, 960 349.35Q983.16 300.51, 1032 323.68Q1097.08 268.76, 1152 333.84Q1224.08 285.91, 1272 357.99Q1287.24 301.23, 1344 316.47Q1409.77 262.24, 1464 328.01z" fill="rgba(24, 93, 58, 1)"></path><path d="M1464 560L0 560 L0 441.39Q0.44 369.83, 72 370.27Q99.22 325.49, 144 352.71Q221.05 309.75, 264 386.8Q332.17 334.97, 384 403.14Q396.08 343.22, 456 355.29Q529.4 308.7, 576 382.1Q628.08 314.18, 696 366.26Q787.44 337.7, 816 429.14Q842.21 383.35, 888 409.55Q913.75 363.31, 960 389.06Q1005.78 314.84, 1080 360.62Q1180.61 341.23, 1200 441.84Q1208.62 378.46, 1272 387.08Q1343.13 338.2, 1392 409.33Q1411 356.33, 1464 375.34z" fill="rgba(33, 161, 102, 1)"></path><path d="M1512 560L0 560 L0 477.5Q24.12 429.62, 72 453.74Q100.35 410.09, 144 438.43Q197.3 419.73, 216 473.03Q268.35 405.38, 336 457.72Q354.47 404.19, 408 422.66Q451.68 394.34, 480 438.01Q536.69 422.7, 552 479.39Q603.38 410.77, 672 462.16Q694.24 412.4, 744 434.65Q810.88 429.52, 816 496.4Q870.64 431.04, 936 485.68Q945.59 423.27, 1008 432.86Q1052.02 404.88, 1080 448.9Q1146.2 395.1, 1200 461.3Q1242.56 383.86, 1320 426.41Q1363.98 398.39, 1392 442.37Q1487.67 418.04, 1512 513.71z" fill="rgba(27, 148, 89, 1)"></path><path d="M1464 560L0 560 L0 534.21Q38.42 500.63, 72 539.05Q94.24 489.29, 144 511.53Q170.73 466.26, 216 492.99Q291.33 448.32, 336 523.65Q402.68 518.33, 408 585.01Q437.88 542.89, 480 572.78Q477.7 498.48, 552 496.18Q655.66 479.84, 672 583.49Q690.24 529.73, 744 547.97Q760.84 492.81, 816 509.65Q846.05 467.69, 888 497.74Q944.09 481.83, 960 537.91Q1032.97 490.88, 1080 563.84Q1147.56 511.4, 1200 578.96Q1214.14 521.1, 1272 535.24Q1289.07 480.31, 1344 497.38Q1413.8 447.18, 1464 516.98z" fill="white"></path></g><defs><mask id="SvgjsMask1007"><rect width="1440" height="560" fill="#ffffff"></rect></mask></defs></svg>